<svg height="1063pt" viewBox="-33 -49 1063.7505 1063" width="1063pt" xmlns="http://www.w3.org/2000/svg"><path d="m736.109375 453.957031-145.902344-21.292969 10.578125 60.601563 130.636719 3.636719c3.484375-14.699219 4.6875-27.382813 4.6875-42.945313zm-66.269531 372.0625c37.652344 0 68.175781 30.527344 68.175781 68.179688 0 37.652343-30.523437 68.175781-68.175781 68.175781s-68.183594-30.523438-68.183594-68.175781c0-37.652344 30.53125-68.179688 68.183594-68.179688zm10.214844 57.957031c-9.066407-9.054687-24.660157-2.632812-24.660157 10.222657 0 12.847656 15.59375 19.277343 24.660157 10.214843 5.636718-5.636718 5.636718-14.789062 0-20.4375zm-321.90625-57.957031c37.660156 0 68.1875 30.527344 68.1875 68.179688 0 37.652343-30.539063 68.175781-68.1875 68.175781-37.640626 0-68.175782-30.523438-68.175782-68.175781 0-37.652344 30.535156-68.179688 68.175782-68.179688zm10.21875 57.957031c-9.058594-9.054687-24.664063-2.632812-24.664063 10.222657 0 12.847656 15.605469 19.277343 24.664063 10.214843 5.640624-5.636718 5.640624-14.789062 0-20.4375zm161.007812-460.191406-160.234375-23.382812 25.234375 87.121094 146.839844 4.082031zm81.632812 128.019532 11.5625 66.273437c34.15625-12.097656 63.132813-34.480469 83.269532-63.632813zm-45.734374 77.621093-13.84375-79.273437-140.03125-3.894532 28.835937 99.527344zm-259.441407-238.257812-109.296875-15.949219 43.882813 108.027344 92.847656 2.582031zm75.996094 262.257812-31.550781-108.871093-85.929688-2.386719 48.753906 120.023437c20.242188-.800781 47.871094-6.035156 68.726563-8.765625zm-67.863281 67.621094c-10.503906 3.566406-16.445313 16.859375-9.605469 27.75 3.890625 6.199219 9.679687 9.269531 17.078125 9.269531h411.964844c16.140625 0 29.226562 13.078125 29.226562 29.214844s-13.085937 29.226562-29.226562 29.226562h-411.964844c-66.035156 0-102.394531-76.199218-60.335938-127.238281l-134.691406-331.558593-30.765625-22.269532c-48.011719 24.085938-105.476562-15.167968-96.890625-71.789062 2.804688-18.472656 14.398438-34.996094 29.054688-44.835938 31.109375-20.890625 72.917968-12.601562 93.785156 18.488282 9.914062 14.765624 14.035156 33.492187 9.964844 52.082031l30.082031 21.785156 137.925781 20.125c7.339844-186.03125 160.523438-333.980469 347.65625-333.980469 192.15625 0 347.941406 155.78125 347.941406 347.941406 0 211.746094-203.859374 391.800782-416.191406 341.121094zm-240.769532-451.328125c-4.339843-6.472656-15.164062-5.054688-16.828124 3.402344-2.378907 12.125 15.828124 15.609375 18.1875 3.660156.515624-2.589844-.039063-5.105469-1.359376-7.0625zm647.871094 355.523438c5.8125-5.378907 11.347656-11.054688 16.5625-16.996094 40.542969-46.195313 48.558594-83.539063 57.757813-141.613282 52.488281-8.605468 96.53125-21.511718 128.882812-37.140624-29.058593 95.710937-106.253906 170.246093-203.203125 195.75zm23.480469-229.019532c2.691406-39.910156 2.171875-81.363281-1.464844-120.574218-61.847656-6.53125-129.859375-6.53125-191.710937 0-2.609375 28.140624-3.789063 64.578124-2.933594 91.960937zm-254.554687-37.140625c-.527344-28.632812.058593-48.460937 2.050781-74.78125-22.4375 4.257813-42.988281 9.429688-61.160157 15.339844-39.785156 12.949219-66.199218 27.179687-71.964843 40.3125zm434.355468-97.8125c-26.148437-86.40625-91.648437-155.886719-175.953125-187.339843 23.351563 42.234374 38.480469 96.480468 46.988281 149.890624 44.679688 7.355469 91.769532 19.171876 128.964844 37.449219zm-121.941406 23.03125c3.035156 40.171875 3.042969 81.449219-.015625 121.925781 22.535156-4.277343 134.328125-31.472656 134.328125-60.980468 0-30.042969-105.730469-55.519532-134.3125-60.945313zm-67.535156-68.117187c-5.992188-32.058594-14.160156-60.933594-24.019532-85.453125-18.636718-46.320313-41.320312-74.96875-63.628906-74.96875s-44.992187 28.648437-63.628906 74.96875c-9.859375 24.503906-18.027344 53.394531-24.019531 85.453125 57.222656-5.167969 118.082031-5.167969 175.296875 0zm-235.792969 7.636718c8.496094-53.402343 23.621094-107.65625 46.976563-149.882812-84.304688 31.445312-149.796876 100.925781-175.953126 187.332031 37.191407-18.277343 84.292969-30.09375 128.976563-37.449219zm0 0" fill-rule="evenodd"/></svg>